<?xml version="1.0" encoding="iso-8859-1"?>
<!-- Generator: Adobe Illustrator 19.0.0, SVG Export Plug-In . SVG Version: 6.00 Build 0)  -->
<svg version="1.1" id="Capa_1" xmlns="http://www.w3.org/2000/svg" xmlns:xlink="http://www.w3.org/1999/xlink" x="0px" y="0px"
	 viewBox="0 0 512 512" style="enable-background:new 0 0 512 512;" xml:space="preserve">
<path style="fill:#FFDB56;" d="M504.747,238.489L273.51,7.252c-9.655-9.654-25.364-9.655-35.021,0.001L7.254,238.488
	C2.577,243.166,0,249.384,0,255.999c0,6.615,2.577,12.833,7.253,17.51L238.49,504.746c4.828,4.827,11.169,7.241,17.51,7.241
	c6.341,0,12.683-2.414,17.511-7.241L504.746,273.51c4.677-4.678,7.254-10.896,7.254-17.511
	C512,249.384,509.423,243.166,504.747,238.489z"/>
<path style="fill:#FFBB24;" d="M504.747,238.489l-23.626-23.626c4.676,4.677,7.253,10.895,7.253,17.51
	c0,6.615-2.577,12.833-7.254,17.511L249.885,481.12c-4.829,4.828-11.17,7.241-17.511,7.242c-6.341,0-12.682-2.414-17.51-7.241
	l23.626,23.626c4.828,4.827,11.169,7.241,17.51,7.241s12.683-2.414,17.511-7.241l231.235-231.236
	c4.677-4.679,7.254-10.897,7.254-17.512C512,249.384,509.423,243.166,504.747,238.489z"/>
<path style="fill:#FF4A4A;" d="M383.931,194.544l-79.152-69.575c-2.21-1.943-5.354-2.41-8.033-1.199
	c-2.68,1.213-4.402,3.883-4.402,6.825v35.083l-8.08,0.006c-0.03-0.001-0.1-0.003-0.114-0.003
	c-32.478-0.711-63.188,11.369-86.4,34.053c-23.239,22.708-36.037,53.107-36.037,85.599v81.332c0,4.137,3.353,7.49,7.49,7.49h48.264
	c4.137,0,7.49-3.353,7.49-7.49v-81.332c0-15.322,6.035-29.657,16.993-40.366c10.932-10.682,25.386-16.38,40.677-16.06
	c0.055,0.002,0.088,0,0.166,0.002l9.551-0.008v40.844c0,2.942,1.722,5.612,4.402,6.824c2.681,1.212,5.823,0.745,8.033-1.198
	l79.152-69.575c1.618-1.423,2.545-3.472,2.545-5.626C386.476,198.016,385.549,195.966,383.931,194.544z"/>
<g>
</g>
<g>
</g>
<g>
</g>
<g>
</g>
<g>
</g>
<g>
</g>
<g>
</g>
<g>
</g>
<g>
</g>
<g>
</g>
<g>
</g>
<g>
</g>
<g>
</g>
<g>
</g>
<g>
</g>
</svg>
