<svg height="512pt" viewBox="0 -53 512.002 512" width="512pt" xmlns="http://www.w3.org/2000/svg"><g fill-rule="evenodd"><path d="m498.722656 295.488281-50.308594-50.308593c16.535157-41.96875 6.703126-90.453126-25.496093-122.652344-1.402344-1.402344-2.839844-2.765625-4.304688-4.085938v-57.105468c0-4.132813-2.542969-7.839844-6.394531-9.328126l-132.871094-51.335937c-.019531-.007813-.039062-.011719-.054687-.015625-.214844-.082031-.433594-.140625-.648438-.207031-.171875-.050781-.339843-.113281-.511719-.15625-.210937-.050781-.425781-.082031-.640624-.117188-.183594-.035156-.363282-.0781248-.550782-.097656-.203125-.0273438-.410156-.0273438-.617187-.0429688-.191407-.0078124-.386719-.03124995-.582031-.03124995-.199219 0-.398438.02343755-.597657.03515625s-.402343.015625-.601562.0390625c-.1875.0195312-.371094.066406-.5625.097656-.207031.039063-.417969.066407-.628907.117188-.167968.042969-.335937.105469-.507812.15625-.21875.066406-.4375.125-.652344.207031-.019531.007812-.035156.011719-.054687.019531l-129.269531 49.941407-129.261719-49.945313c-3.078125-1.1875-6.542969-.78125-9.261719 1.082031-2.71875 1.863282-4.34375 4.949219-4.34375 8.246094v335.195312c0 4.132813 2.542969 7.839844 6.398438 9.328126l132.871093 51.335937c.167969.066406.339844.117187.511719.171875.078125.023438.152344.054688.230469.078125.417969.125.839843.21875 1.265625.285156.085937.015625.175781.023438.261718.039063.445313.058594.886719.097656 1.332032.097656.445312 0 .890625-.039062 1.332031-.097656.089844-.015625.175781-.023438.261719-.039063.429687-.066406.851562-.160156 1.269531-.285156.074219-.023437.148437-.050781.226563-.078125.171874-.054688.34375-.105469.515624-.171875l129.269532-49.941406 129.265625 49.941406c1.167969.449219 2.386719.671875 3.605469.671875 1.988281 0 3.96875-.59375 5.65625-1.753906 2.71875-1.863282 4.34375-4.949219 4.34375-8.246094v-52.507812l15.785156 15.785156c8.5625 8.5625 19.984375 13.277344 32.160156 13.277344s23.597656-4.714844 32.160156-13.277344 13.28125-19.984375 13.28125-32.160156c-.003906-12.175782-4.71875-23.597657-13.28125-32.160157zm-100.109375-191.535156c-17.007812-9.703125-36.324219-14.871094-56.433593-14.871094-20.113282 0-39.425782 5.167969-56.4375 14.871094v-79.367187l112.871093 43.605468zm-378.613281-79.367187 112.871094 43.605468v313.757813l-112.871094-43.609375zm132.871094 43.605468 112.871094-43.605468v93.855468c-1.464844 1.320313-2.898438 2.679688-4.304688 4.085938-44.519531 44.519531-44.519531 116.957031 0 161.480468 1.40625 1.402344 2.839844 2.765626 4.304688 4.085938v50.246094l-112.871094 43.609375zm245.742187 313.757813-112.871093-43.609375v-35.757813c17.007812 9.699219 36.320312 14.863281 56.429687 14.863281 14.289063 0 28.644531-2.734374 41.917969-7.945312l14.523437 14.523438zm85.964844-36.28125c-4.785156 4.785156-11.183594 7.421875-18.015625 7.421875-6.835938 0-13.234375-2.636719-18.023438-7.421875l-32.84375-32.847657c-.007812-.003906-.015624-.011718-.019531-.019531l-22.234375-22.234375c-1.917968-1.917968-4.476562-2.925781-7.074218-2.925781-1.433594 0-2.882813.308594-4.238282.941406-12.386718 5.796875-26.203125 8.863281-39.957031 8.863281-25.15625 0-48.804687-9.792968-66.589844-27.582031-36.722656-36.722656-36.722656-96.472656 0-133.195312 17.789063-17.785157 41.4375-27.582031 66.597657-27.582031 25.15625 0 48.808593 9.796874 66.597656 27.582031 27.945312 27.949219 35.46875 70.769531 18.71875 106.550781-1.785156 3.8125-.992188 8.335938 1.984375 11.3125l55.097656 55.097656c4.785156 4.789063 7.421875 11.1875 7.421875 18.019532 0 6.835937-2.636719 13.234374-7.421875 18.019531zm0 0"/><path d="m290.269531 151.351562c-2.46875 2.46875-4.789062 5.144532-6.890625 7.953126-3.3125 4.421874-2.414062 10.6875 2.007813 14 4.417969 3.308593 10.6875 2.410156 13.996093-2.007813 1.539063-2.050781 3.226563-4.003906 5.023438-5.800781 20.828125-20.824219 54.714844-20.828125 75.542969 0 10.089843 10.089844 15.644531 23.503906 15.644531 37.773437 0 14.265625-5.554688 27.679688-15.644531 37.769531-20.828125 20.828126-54.714844 20.828126-75.542969-.003906-1.796875-1.792968-3.484375-3.746094-5.023438-5.796875-3.308593-4.417969-9.578124-5.320312-14-2.007812-4.417968 3.3125-5.316406 9.578125-2.007812 14 2.105469 2.808593 4.425781 5.484375 6.890625 7.949219 14.3125 14.3125 33.113281 21.46875 51.914063 21.46875 18.796874 0 37.597656-7.15625 51.910156-21.46875 13.867187-13.863282 21.503906-32.300782 21.503906-51.910157 0-19.613281-7.636719-38.046875-21.503906-51.914062-28.621094-28.625-75.199219-28.625-103.820313-.003907zm0 0"/><path d="m288.761719 203.265625c0-5.507813-4.492188-10-10-10-5.507813 0-10 4.492187-10 10s4.492187 10 10 10c5.507812 0 10-4.492187 10-10zm0 0"/></g></svg>