<?xml version="1.0" encoding="iso-8859-1"?>
<!-- Generator: Adobe Illustrator 19.0.0, SVG Export Plug-In . SVG Version: 6.00 Build 0)  -->
<svg version="1.1" id="Capa_1" xmlns="http://www.w3.org/2000/svg" xmlns:xlink="http://www.w3.org/1999/xlink" x="0px" y="0px"
	 viewBox="0 0 480 480" style="enable-background:new 0 0 480 480;" xml:space="preserve">
<path style="fill:#7FCAC9;" d="M48,104h384v336H48V104z"/>
<g>
	<path style="fill:#195C85;" d="M144,168h192v64H144V168z"/>
	<path style="fill:#195C85;" d="M144,232h32v208h-32V232z"/>
	<path style="fill:#195C85;" d="M304,232h32v208h-32V232z"/>
</g>
<path style="fill:#238892;" d="M8,440h464v32H8V440z"/>
<path style="fill:#CFDFE8;" d="M152,40h176v128H152V40z"/>
<path style="fill:#195C85;" d="M120,8h240v32H120V8z"/>
<path style="fill:#238892;" d="M216,368h48v72h-48V368z"/>
<g>
	<path style="fill:#195C85;" d="M72,384h16v16H72V384z"/>
	<path style="fill:#195C85;" d="M104,384h16v16h-16V384z"/>
	<path style="fill:#195C85;" d="M72,352h16v16H72V352z"/>
	<path style="fill:#195C85;" d="M104,352h16v16h-16V352z"/>
	<path style="fill:#195C85;" d="M72,320h16v16H72V320z"/>
	<path style="fill:#195C85;" d="M104,320h16v16h-16V320z"/>
	<path style="fill:#195C85;" d="M72,288h16v16H72V288z"/>
	<path style="fill:#195C85;" d="M104,288h16v16h-16V288z"/>
	<path style="fill:#195C85;" d="M72,256h16v16H72V256z"/>
	<path style="fill:#195C85;" d="M104,256h16v16h-16V256z"/>
	<path style="fill:#195C85;" d="M72,224h16v16H72V224z"/>
	<path style="fill:#195C85;" d="M104,224h16v16h-16V224z"/>
	<path style="fill:#195C85;" d="M72,192h16v16H72V192z"/>
	<path style="fill:#195C85;" d="M104,192h16v16h-16V192z"/>
	<path style="fill:#195C85;" d="M72,160h16v16H72V160z"/>
	<path style="fill:#195C85;" d="M104,160h16v16h-16V160z"/>
	<path style="fill:#195C85;" d="M72,128h16v16H72V128z"/>
	<path style="fill:#195C85;" d="M104,128h16v16h-16V128z"/>
	<path style="fill:#195C85;" d="M360,384h16v16h-16V384z"/>
	<path style="fill:#195C85;" d="M392,384h16v16h-16V384z"/>
	<path style="fill:#195C85;" d="M360,352h16v16h-16V352z"/>
	<path style="fill:#195C85;" d="M392,352h16v16h-16V352z"/>
	<path style="fill:#195C85;" d="M360,320h16v16h-16V320z"/>
	<path style="fill:#195C85;" d="M392,320h16v16h-16V320z"/>
	<path style="fill:#195C85;" d="M360,288h16v16h-16V288z"/>
	<path style="fill:#195C85;" d="M232,328h16v16h-16V328z"/>
	<path style="fill:#195C85;" d="M200,328h16v16h-16V328z"/>
	<path style="fill:#195C85;" d="M264,328h16v16h-16V328z"/>
	<path style="fill:#195C85;" d="M232,296h16v16h-16V296z"/>
	<path style="fill:#195C85;" d="M200,296h16v16h-16V296z"/>
	<path style="fill:#195C85;" d="M264,296h16v16h-16V296z"/>
	<path style="fill:#195C85;" d="M232,264h16v16h-16V264z"/>
	<path style="fill:#195C85;" d="M200,264h16v16h-16V264z"/>
	<path style="fill:#195C85;" d="M264,264h16v16h-16V264z"/>
	<path style="fill:#195C85;" d="M232,128h16v16h-16V128z"/>
	<path style="fill:#195C85;" d="M200,128h16v16h-16V128z"/>
	<path style="fill:#195C85;" d="M264,128h16v16h-16V128z"/>
	<path style="fill:#195C85;" d="M232,96h16v16h-16V96z"/>
	<path style="fill:#195C85;" d="M200,96h16v16h-16V96z"/>
	<path style="fill:#195C85;" d="M264,96h16v16h-16V96z"/>
	<path style="fill:#195C85;" d="M232,64h16v16h-16V64z"/>
	<path style="fill:#195C85;" d="M200,64h16v16h-16V64z"/>
	<path style="fill:#195C85;" d="M264,64h16v16h-16V64z"/>
	<path style="fill:#195C85;" d="M392,288h16v16h-16V288z"/>
	<path style="fill:#195C85;" d="M360,256h16v16h-16V256z"/>
	<path style="fill:#195C85;" d="M392,256h16v16h-16V256z"/>
	<path style="fill:#195C85;" d="M360,224h16v16h-16V224z"/>
	<path style="fill:#195C85;" d="M392,224h16v16h-16V224z"/>
	<path style="fill:#195C85;" d="M360,192h16v16h-16V192z"/>
	<path style="fill:#195C85;" d="M392,192h16v16h-16V192z"/>
	<path style="fill:#195C85;" d="M360,160h16v16h-16V160z"/>
	<path style="fill:#195C85;" d="M392,160h16v16h-16V160z"/>
	<path style="fill:#195C85;" d="M360,128h16v16h-16V128z"/>
	<path style="fill:#195C85;" d="M392,128h16v16h-16V128z"/>
</g>
<g>
	<path style="fill:#D3843D;" d="M16,408h16v32H16V408z"/>
	<path style="fill:#D3843D;" d="M448,408h16v32h-16V408z"/>
</g>
<g>
	<path style="fill:#CFDFE8;" d="M168,192h16v16h-16V192z"/>
	<path style="fill:#CFDFE8;" d="M296,192h16v16h-16V192z"/>
</g>
<g>
	<ellipse style="fill:#55B56A;" cx="24" cy="376" rx="24" ry="40"/>
	<ellipse style="fill:#55B56A;" cx="456" cy="376" rx="24" ry="40"/>
</g>
<g>
</g>
<g>
</g>
<g>
</g>
<g>
</g>
<g>
</g>
<g>
</g>
<g>
</g>
<g>
</g>
<g>
</g>
<g>
</g>
<g>
</g>
<g>
</g>
<g>
</g>
<g>
</g>
<g>
</g>
</svg>
