<?xml version="1.0" encoding="utf-8"?>
<!-- Generator: Adobe Illustrator 25.2.1, SVG Export Plug-In . SVG Version: 6.00 Build 0)  -->
<svg version="1.1" id="Layer_1" xmlns="http://www.w3.org/2000/svg" xmlns:xlink="http://www.w3.org/1999/xlink" x="0px" y="0px"
	 viewBox="0 0 353.2 467.9" style="enable-background:new 0 0 353.2 467.9;" xml:space="preserve">
<style type="text/css">
	.st0{fill:#E64C3C;}
	.st1{fill:#802F34;}
	.st2{fill:#FFFFFF;}
</style>
<g id="_x30_20---Travel-Location">
	<path id="Shape_1_" class="st0" d="M353.2,177.8c0,118.5-139.6,258.1-170.5,287.7c-3.4,3.2-8.7,3.2-12.1,0
		C139.6,435.9,0,296.3,0,177.8C0,80.3,79,1.2,176.6,1.2S353.2,80.3,353.2,177.8L353.2,177.8z"/>
	<circle id="Oval" class="st1" cx="176.6" cy="176.6" r="141.2"/>
	<path id="Shape_2_" class="st2" d="M250.9,127l-26.3,26.4c-2.5,2.5-3.3,6.2-2,9.4l23.7,62c1.3,3.5,0.4,7.4-2.4,9.8l-8,7.2
		c-3.5,3.1-8.8,2.9-12.1-0.3L186.2,204c-3.4-3.4-8.9-3.4-12.3,0l-23.7,23.7c-2.3,2.4-3.1,5.8-2.1,9l2.8,8.2c1,3.1,0.2,6.6-2.1,8.9
		l-8.6,8.5c-1.6,1.7-3.8,2.6-6.1,2.6c-2.3,0-4.5-0.9-6.1-2.6l-36.9-37c-1.7-1.6-2.6-3.8-2.6-6.1s0.9-4.5,2.6-6.1l8.5-8.5
		c2.3-2.4,5.8-3.2,8.9-2.1l8.2,2.8c3.2,1,6.6,0.1,9-2.1l23.7-23.7c3.4-3.4,3.4-8.9,0-12.3l-37.5-37.5c-3.3-3.3-3.5-8.6-0.4-12.1
		l7.1-8c2.5-2.8,6.4-3.7,9.8-2.4l62,23.7c3.3,1.3,7,0.5,9.5-2l26.3-26.4c6.9-6.4,17.6-6.3,24.3,0.4
		C257.1,109.3,257.3,120.1,250.9,127L250.9,127z"/>
</g>
</svg>
