<?xml version="1.0" encoding="iso-8859-1"?>
<!-- Generator: Adobe Illustrator 19.0.0, SVG Export Plug-In . SVG Version: 6.00 Build 0)  -->
<svg version="1.1" id="Capa_1" xmlns="http://www.w3.org/2000/svg" xmlns:xlink="http://www.w3.org/1999/xlink" x="0px" y="0px"
	 viewBox="0 0 512.001 512.001" style="enable-background:new 0 0 512.001 512.001;" xml:space="preserve">
<path style="fill:#FFBB24;" d="M486.26,216.715c-13.755-5.606-31.883-8.693-51.043-8.693c-19.161,0-37.288,3.087-51.044,8.693
	c-15.887,6.475-24.637,15.918-24.637,26.59s8.75,20.115,24.637,26.59c13.756,5.606,31.883,8.693,51.044,8.693
	c19.16,0,37.288-3.087,51.043-8.693c15.887-6.475,24.637-15.918,24.637-26.59S502.148,223.189,486.26,216.715z"/>
<path style="fill:#FFDB56;" d="M486.26,216.715c-13.755-5.606-31.883-8.693-51.043-8.693c-19.161,0-37.288,3.087-51.044,8.693
	c-15.887,6.475-24.637,15.918-24.637,26.59s8.75,20.115,24.637,26.59c13.756,5.606,31.883,8.693,51.044,8.693
	c19.16,0,37.288-3.087,51.043-8.693c15.887-6.475,24.637-15.918,24.637-26.59S502.148,223.189,486.26,216.715z"/>
<path style="fill:#FFBB24;" d="M486.26,247.676c-13.755,5.606-31.883,8.693-51.043,8.693c-19.161,0-37.288-3.087-51.044-8.693
	c-10.088-4.111-17.285-9.421-21.204-15.481c-2.253,3.484-3.433,7.213-3.433,11.108c0,10.672,8.75,20.115,24.637,26.59
	c13.756,5.606,31.883,8.693,51.044,8.693c19.16,0,37.288-3.087,51.043-8.693c15.887-6.475,24.637-15.918,24.637-26.59
	c0-3.895-1.179-7.625-3.433-11.108C503.545,238.255,496.348,243.565,486.26,247.676z"/>
<path style="fill:#E2E2E2;" d="M454.39,114.366c-1.841-1.419-4.235-1.904-6.48-1.315c-8.265,2.17-17.118,2.17-25.383,0
	c-2.249-0.589-4.64-0.104-6.48,1.315c-1.84,1.419-2.917,3.611-2.917,5.934v109.142c0,11.776,9.58,21.356,21.356,21.356h1.467
	c11.776,0,21.356-9.58,21.356-21.356V120.301C457.307,117.977,456.229,115.785,454.39,114.366z"/>
<path style="fill:#C6C5CA;" d="M454.39,114.366c-1.841-1.419-4.235-1.904-6.48-1.315c-8.265,2.17-17.118,2.17-25.383,0
	c-2.249-0.589-4.64-0.104-6.48,1.315c-1.84,1.419-2.917,3.611-2.917,5.934v24.982c6.898,2.507,14.336,3.879,22.09,3.879
	c7.754,0,15.191-1.372,22.089-3.879v-24.983C457.307,117.977,456.229,115.785,454.39,114.366z"/>
<path style="fill:#FFBB24;" d="M97.325,424.694c-46.646,0-96.221,15.299-96.221,43.654s49.576,43.654,96.221,43.654
	s96.221-15.299,96.221-43.654C193.546,439.993,143.971,424.694,97.325,424.694z"/>
<path style="fill:#FFDB56;" d="M97.325,424.694c-46.646,0-96.221,15.299-96.221,43.654s49.576,43.654,96.221,43.654
	s96.221-15.299,96.221-43.654C193.546,439.993,143.971,424.694,97.325,424.694z"/>
<path style="fill:#FFBB24;" d="M97.325,489.782c-40.132,0-82.43-11.325-93.462-32.545c-1.791,3.445-2.759,7.149-2.759,11.108
	c0,28.354,49.576,43.654,96.221,43.654s96.221-15.299,96.221-43.654c0-3.959-0.968-7.665-2.759-11.108
	C179.755,478.457,137.456,489.782,97.325,489.782z"/>
<path style="fill:#E2E2E2;" d="M120.895,302.354c-1.84-1.419-4.233-1.904-6.481-1.315c-11.131,2.922-23.047,2.922-34.179,0
	c-2.245-0.589-4.641-0.104-6.481,1.315s-2.917,3.612-2.917,5.935v141.066c0,14.605,11.882,26.487,26.487,26.487
	s26.487-11.882,26.487-26.487V308.289C123.812,305.966,122.734,303.773,120.895,302.354z"/>
<path style="fill:#C6C5CA;" d="M120.895,302.354c-1.84-1.419-4.233-1.904-6.481-1.315c-11.131,2.922-23.047,2.922-34.179,0
	c-2.245-0.589-4.641-0.104-6.481,1.315s-2.917,3.612-2.917,5.935v25.096c8.316,2.843,17.219,4.408,26.487,4.408
	s18.17-1.566,26.487-4.409v-25.096C123.812,305.966,122.734,303.773,120.895,302.354z"/>
<g>
	<path style="fill:#1EA4E9;" d="M206.529,478.602c-4.124,0-7.476-3.334-7.494-7.461c-0.019-4.139,3.322-7.51,7.461-7.529
		l4.997-0.022c0.011,0,0.023,0,0.034,0c4.124,0,7.476,3.333,7.495,7.461c0.019,4.139-3.322,7.51-7.461,7.529l-4.997,0.022
		C206.552,478.602,206.541,478.602,206.529,478.602z"/>
	<path style="fill:#1EA4E9;" d="M241.223,478.444c-4.123,0-7.475-3.333-7.494-7.461c-0.018-4.139,3.322-7.51,7.461-7.529
		l9.899-0.045c0.012,0,0.023,0,0.035,0c4.124,0,7.475,3.333,7.494,7.461c0.018,4.139-3.322,7.51-7.461,7.529l-9.899,0.045
		C241.247,478.444,241.235,478.444,241.223,478.444z M280.82,478.264c-4.123,0-7.475-3.334-7.494-7.461
		c-0.018-4.139,3.322-7.51,7.461-7.529l9.899-0.045c0.012,0,0.024,0,0.035,0c4.123,0,7.475,3.334,7.494,7.461
		c0.019,4.139-3.322,7.51-7.461,7.529l-9.899,0.045C280.844,478.264,280.832,478.264,280.82,478.264z M320.417,478.085
		c-4.123,0-7.475-3.334-7.494-7.461c-0.018-4.139,3.322-7.51,7.461-7.529l9.898-0.045c4.117-0.05,7.511,3.321,7.529,7.461
		c0.019,4.139-3.322,7.51-7.461,7.529l-9.898,0.045C320.441,478.085,320.429,478.085,320.417,478.085z M360.014,477.905
		c-4.123,0-7.475-3.333-7.494-7.461c-0.019-4.139,3.321-7.51,7.461-7.529l9.899-0.045c4.145-0.043,7.511,3.321,7.529,7.461
		c0.019,4.139-3.321,7.51-7.461,7.529l-9.899,0.045C360.038,477.905,360.026,477.905,360.014,477.905z M399.61,477.725
		c-4.123,0-7.475-3.333-7.494-7.461c-0.019-4.139,3.322-7.51,7.461-7.529l9.899-0.045c4.174-0.035,7.511,3.321,7.529,7.461
		c0.019,4.139-3.322,7.51-7.461,7.529l-9.899,0.045C399.634,477.725,399.622,477.725,399.61,477.725z M439.208,477.545
		c-4.123,0-7.475-3.334-7.494-7.461c-0.019-4.139,3.322-7.51,7.461-7.529l1.403-0.006c2.499-0.011,5.017-0.189,7.478-0.528
		c4.096-0.559,7.883,2.302,8.445,6.405c0.564,4.1-2.303,7.883-6.404,8.446c-3.114,0.428-6.295,0.653-9.451,0.667l-1.403,0.006
		C439.232,477.545,439.22,477.545,439.208,477.545z M476.495,466.254c-2.375,0-4.711-1.125-6.167-3.225
		c-2.357-3.402-1.512-8.071,1.89-10.43c2.385-1.653,4.661-3.509,6.767-5.514c2.998-2.853,7.742-2.739,10.596,0.258
		c2.855,2.997,2.739,7.742-0.258,10.597c-2.664,2.538-5.546,4.886-8.564,6.978C479.456,465.82,477.967,466.254,476.495,466.254z
		 M500.198,435.348c-0.836,0-1.686-0.141-2.518-0.438c-3.898-1.39-5.932-5.678-4.542-9.576c0.974-2.729,1.739-5.559,2.276-8.411
		c0.765-4.068,4.69-6.745,8.752-5.979c4.067,0.765,6.744,4.685,5.979,8.752c-0.682,3.618-1.652,7.21-2.888,10.675
		C506.163,433.434,503.277,435.348,500.198,435.348z M501.41,396.415c-3.258,0-6.257-2.142-7.2-5.429
		c-0.799-2.785-1.828-5.532-3.056-8.163c-1.75-3.751-0.128-8.21,3.623-9.961c3.751-1.749,8.21-0.127,9.961,3.624
		c1.559,3.341,2.863,6.827,3.879,10.365c1.142,3.979-1.157,8.129-5.136,9.272C502.791,396.321,502.095,396.415,501.41,396.415z
		 M479.673,364.084c-1.626,0-3.265-0.527-4.64-1.613c-2.279-1.8-4.717-3.435-7.244-4.859c-3.605-2.033-4.883-6.602-2.851-10.209
		s6.603-4.883,10.209-2.851c3.201,1.804,6.288,3.873,9.175,6.153c3.249,2.565,3.803,7.278,1.238,10.527
		C484.082,363.105,481.888,364.084,479.673,364.084z M443.189,350.498c-0.112,0-0.225-0.003-0.338-0.007
		c-0.837-0.037-1.681-0.056-2.527-0.056h-7.039c-4.14,0-7.495-3.356-7.495-7.495s3.355-7.495,7.495-7.495h7.039
		c1.064,0,2.139,0.023,3.191,0.07c4.135,0.183,7.339,3.683,7.155,7.82C450.492,347.357,447.175,350.498,443.189,350.498z
		 M403.588,350.435h-9.899c-4.14,0-7.495-3.356-7.495-7.495s3.355-7.495,7.495-7.495h9.899c4.14,0,7.495,3.356,7.495,7.495
		S407.727,350.435,403.588,350.435z M363.99,350.435h-9.899c-4.14,0-7.495-3.356-7.495-7.495s3.355-7.495,7.495-7.495h9.899
		c4.14,0,7.495,3.356,7.495,7.495S368.129,350.435,363.99,350.435z M324.393,350.435h-9.899c-4.14,0-7.495-3.356-7.495-7.495
		s3.355-7.495,7.495-7.495h9.899c4.14,0,7.495,3.356,7.495,7.495S328.532,350.435,324.393,350.435z M286.209,342.98
		c-1.367,0-2.751-0.374-3.992-1.157c-3.213-2.027-6.232-4.392-8.974-7.029c-2.984-2.869-3.077-7.614-0.208-10.597
		c2.869-2.984,7.615-3.077,10.597-0.208c2.013,1.936,4.227,3.669,6.583,5.156c3.501,2.209,4.549,6.837,2.339,10.338
		C291.13,341.743,288.696,342.98,286.209,342.98z M264.426,311.231c-3.516,0-6.651-2.484-7.349-6.063
		c-0.688-3.526-1.035-7.149-1.035-10.768l0.004-0.592c0.048-4.109,3.394-7.408,7.492-7.408c0.03,0,0.06,0,0.089,0
		c4.14,0.048,7.456,3.443,7.407,7.582l-0.002,0.417c0,2.659,0.256,5.318,0.758,7.902c0.791,4.063-1.86,7.998-5.924,8.79
		C265.384,311.185,264.9,311.231,264.426,311.231z M272.617,273.612c-1.515,0-3.043-0.458-4.366-1.408
		c-3.362-2.415-4.13-7.098-1.716-10.46c2.218-3.087,4.76-5.96,7.554-8.537c3.043-2.807,7.785-2.614,10.591,0.427
		c2.807,3.043,2.615,7.785-0.428,10.591c-2.05,1.891-3.914,3.998-5.541,6.264C277.245,272.528,274.948,273.612,272.617,273.612z
		 M305.612,253.781c-3.7,0-6.919-2.74-7.42-6.508c-0.546-4.103,2.339-7.872,6.443-8.416c2.45-0.326,4.956-0.491,7.443-0.491h3.423
		c4.139,0,7.495,3.356,7.495,7.495s-3.356,7.495-7.495,7.495h-3.423c-1.83,0-3.67,0.121-5.47,0.36
		C306.273,253.759,305.94,253.781,305.612,253.781z"/>
	<path style="fill:#1EA4E9;" d="M350.392,253.354h-4.997c-4.14,0-7.495-3.356-7.495-7.495s3.355-7.495,7.495-7.495h4.997
		c4.14,0,7.495,3.356,7.495,7.495S354.532,253.354,350.392,253.354z"/>
</g>
<path style="fill:#FF4A4A;" d="M97.325,154.007c-45.277,0-82.112,36.835-82.112,82.112c0,45.277,36.835,82.111,82.112,82.111
	s82.112-36.835,82.112-82.111C179.437,190.843,142.602,154.007,97.325,154.007z"/>
<path style="fill:#E7343F;" d="M97.325,154.007c-6.049,0-11.94,0.677-17.62,1.924c36.834,8.088,64.492,40.961,64.492,80.188
	s-27.658,72.1-64.492,80.187c5.68,1.247,11.571,1.924,17.62,1.924c45.277,0,82.112-36.835,82.112-82.111
	C179.437,190.843,142.602,154.007,97.325,154.007z"/>
<path style="fill:#FF4A4A;" d="M435.218,0c-35.751,0-64.838,29.086-64.838,64.838c0,35.751,29.086,64.838,64.838,64.838
	s64.838-29.086,64.838-64.838S470.969,0,435.218,0z"/>
<path style="fill:#E7343F;" d="M435.218,0c-5.966,0-11.74,0.826-17.231,2.342c27.412,7.568,47.607,32.71,47.607,62.496
	s-20.195,54.928-47.607,62.496c5.491,1.516,11.264,2.342,17.231,2.342c35.751,0,64.838-29.086,64.838-64.838S470.969,0,435.218,0z"
	/>
<g>
</g>
<g>
</g>
<g>
</g>
<g>
</g>
<g>
</g>
<g>
</g>
<g>
</g>
<g>
</g>
<g>
</g>
<g>
</g>
<g>
</g>
<g>
</g>
<g>
</g>
<g>
</g>
<g>
</g>
</svg>
