<svg id="Flat" height="512" viewBox="0 0 512 512" width="512" xmlns="http://www.w3.org/2000/svg"><path d="m304 64-48-8v-32l48 8z" fill="#ffb632"/><path d="m256 112a8 8 0 0 1 -8-8v-80a8 8 0 0 1 16 0v80a8 8 0 0 1 -8 8z" fill="#95573a"/><path d="m344 488h-176v-336l88-64 88 64z" fill="#ffb632"/><circle cx="256" cy="200" fill="#e9eef2" r="40"/><path d="m344 152h128v336h-128z" fill="#f7b030"/><path d="m264 208h-8a8 8 0 0 1 -8-8v-16a8 8 0 0 1 16 0v8a8 8 0 0 1 0 16z" fill="#eb423f"/><path d="m200 272h112v32h-112z" fill="#d13330"/><path d="m256 344a48 48 0 0 1 48 48v96a0 0 0 0 1 0 0h-96a0 0 0 0 1 0 0v-96a48 48 0 0 1 48-48z" fill="#eb423f"/><path d="m304 392v96h-48v-144a48 48 0 0 1 48 48z" fill="#d13330"/><path d="m40 152h128v336h-128z" fill="#f7b030"/><path d="m80 192h48v64h-48z" fill="#e9eef2"/><path d="m136 264h-64a8 8 0 0 1 0-16h64a8 8 0 0 1 0 16z" fill="#95573a"/><path d="m80 288h48v64h-48z" fill="#dadcde"/><path d="m136 360h-64a8 8 0 0 1 0-16h64a8 8 0 0 1 0 16z" fill="#95573a"/><path d="m80 384h48v64h-48z" fill="#e9eef2"/><path d="m136 456h-64a8 8 0 0 1 0-16h64a8 8 0 0 1 0 16z" fill="#95573a"/><path d="m384 192h48v64h-48z" fill="#e9eef2"/><path d="m440 264h-64a8 8 0 0 1 0-16h64a8 8 0 0 1 0 16z" fill="#95573a"/><path d="m384 288h48v64h-48z" fill="#dadcde"/><path d="m440 360h-64a8 8 0 0 1 0-16h64a8 8 0 0 1 0 16z" fill="#95573a"/><path d="m384 384h48v64h-48z" fill="#e9eef2"/><g fill="#95573a"><path d="m440 456h-64a8 8 0 0 1 0-16h64a8 8 0 0 1 0 16z"/><path d="m488 496h-464a8 8 0 0 1 0-16h464a8 8 0 0 1 0 16z"/><path d="m24 152a8 8 0 0 0 0 16h144v-16z"/><path d="m488 152h-144v16h144a8 8 0 0 0 0-16z"/><path d="m343.994 168a7.968 7.968 0 0 1 -4.7-1.53l-83.294-60.578-83.294 60.578a8 8 0 0 1 -9.412-12.94l88-64a8 8 0 0 1 9.412 0l88 64a8 8 0 0 1 -4.712 14.47z"/></g></svg>