<?xml version="1.0" encoding="iso-8859-1"?>
<!-- Generator: Adobe Illustrator 19.0.0, SVG Export Plug-In . SVG Version: 6.00 Build 0)  -->
<svg version="1.1" id="Capa_1" xmlns="http://www.w3.org/2000/svg" xmlns:xlink="http://www.w3.org/1999/xlink" x="0px" y="0px"
	 viewBox="0 0 512 512" style="enable-background:new 0 0 512 512;" xml:space="preserve">
<circle style="fill:#0094CE;" cx="256" cy="256" r="201.353"/>
<circle style="fill:#1EA4E9;" cx="256.47" cy="256.17" r="178.676"/>
<circle style="fill:#A8EEFC;" cx="256.47" cy="256.17" r="154.208"/>
<circle style="fill:#FF4A4A;" cx="256" cy="256" r="100.781"/>
<path style="fill:#E7343F;" d="M256.002,329.769c-51.078,0-93.274-38.002-99.873-87.272c-0.592,4.418-0.903,8.925-0.903,13.504
	c0,55.657,45.119,100.776,100.776,100.776S356.778,311.657,356.778,256c0-4.579-0.311-9.086-0.903-13.504
	C349.276,291.767,307.08,329.769,256.002,329.769z"/>
<g>
	<path style="fill:#475D63;" d="M256.002,364.28c-59.706,0-108.279-48.574-108.279-108.28s48.574-108.279,108.279-108.279
		S364.281,196.295,364.281,256C364.281,315.706,315.707,364.28,256.002,364.28z M256.002,162.726
		c-51.432,0-93.274,41.843-93.274,93.274c0,51.432,41.842,93.275,93.274,93.275s93.274-41.843,93.274-93.275
		C349.276,204.569,307.434,162.726,256.002,162.726z"/>
	<path style="fill:#475D63;" d="M504.498,248.497l-39.788,0.001C460.832,139.289,372.713,51.17,263.502,47.294l-0.001-39.791
		c0-4.144-3.359-7.502-7.502-7.502c-4.144,0-7.502,3.359-7.502,7.502l0.001,39.791C139.289,51.172,51.172,139.29,47.295,248.498
		l-39.792-0.001c-4.143,0-7.502,3.358-7.502,7.502c0,4.143,3.358,7.502,7.502,7.502l39.792,0.001
		c3.877,109.209,91.994,197.327,201.203,201.205l-0.001,39.79c0,4.143,3.358,7.502,7.502,7.502c4.143,0,7.502-3.358,7.502-7.502
		l0.001-39.79c109.21-3.876,197.33-91.995,201.207-201.205l39.788-0.001c4.144,0,7.502-3.359,7.502-7.502
		C512,251.855,508.64,248.497,504.498,248.497z M449.694,248.499l-32.159,0.001c-3.818-83.213-70.818-150.214-154.031-154.033
		l-0.001-32.158C364.438,66.17,445.832,147.563,449.694,248.499z M256.002,402.709c-80.895,0-146.709-65.814-146.709-146.709
		s65.814-146.709,146.709-146.709S402.711,175.105,402.711,256S336.897,402.709,256.002,402.709z M248.499,62.308l0.001,32.158
		c-83.213,3.82-150.212,70.82-154.031,154.033l-32.159-0.001C66.171,147.564,147.564,66.171,248.499,62.308z M62.309,263.503
		l32.159,0.001c3.82,83.211,70.819,150.21,154.031,154.03l-0.001,32.159C147.564,445.829,66.172,364.437,62.309,263.503z
		 M263.503,449.693l0.001-32.159c83.212-3.819,150.211-70.818,154.031-154.03l32.159-0.001
		C445.832,364.438,364.438,445.831,263.503,449.693z"/>
</g>
<g>
</g>
<g>
</g>
<g>
</g>
<g>
</g>
<g>
</g>
<g>
</g>
<g>
</g>
<g>
</g>
<g>
</g>
<g>
</g>
<g>
</g>
<g>
</g>
<g>
</g>
<g>
</g>
<g>
</g>
</svg>
